<svg xmlns="http://www.w3.org/2000/svg" height="24" viewBox="0 -960 960 960" width="24"><path d="M480.261-495.5q24.239 0 41.489-17.261 17.25-17.261 17.25-41.5t-17.365-41.489Q504.27-613 479.885-613T438.5-595.635q-17 17.365-17 41.75t17.261 41.385q17.261 17 41.5 17Zm-.261 325q108.771-94.069 175.635-197.785Q722.5-472 722.5-546.5q0-109-68.573-180.5-68.574-71.5-174-71.5Q374.5-798.5 306-727q-68.5 71.5-68.5 180.5 0 74.5 66.865 178.215Q371.229-264.569 480-170.5Zm0 34.5Q347-256.5 279.5-359.75T212-546.313q0-117.47 77-197.078Q366-823 480-823t191 79.609q77 79.608 77 197.078Q748-463 680.5-359.75 613-256.5 480-136Zm0-418Z"/></svg>