<svg xmlns="http://www.w3.org/2000/svg" height="24" viewBox="0 -960 960 960" width="24"><path d="M477.89-176.5q-115.2 0-200.795-74.75Q191.5-326 177.5-440.5H203Q219.5-338 296.482-270t181.29 68Q594-202 675-283.013q81-81.013 81-196.982t-81.063-196.987Q593.873-758 477.5-758q-59.27 0-111.635 24T272.5-667.853H367v25.353H228.5V-781H254v95.5q44.5-46 101.959-72t121.457-26q63.084 0 118.291 23.852 55.207 23.853 96.5 65Q733.5-653.5 757.5-598.316q24 55.184 24 118.25t-24 118.316q-24 55.25-65.25 96.5t-96.536 65Q540.427-176.5 477.89-176.5Zm132.61-156L469-474.435V-677.5h25.5v192L629-351l-18.5 18.5Z"/></svg>